@startuml
'https://plantuml.com/class-diagram

abstract class UserData #palegreen ##[dashed]green {
 - name
}
class NetworkUserData
class VisualUserData


UserData <|-- NetworkUserData
UserData <|-- VisualUserData

class UserPresenceValidator {
   detectors: DetectingUserPresence[]
}

abstract class DetectingUserPresence #palegreen ##[dashed]green {
    users: UserData[]
    get_user_presence(): UserPresence
}

interface Runnable #aliceblue ##[dotted]blue {
   start(): void
   stop(): void
   is_running(): bool
}

interface UserPresenceDispatcher #aliceblue ##[dotted]blue {
  notify_about(presence: UserPresence)
}

class UserPresenceDispatcherViaQueue

class UserPresence {
  - user: UserData
  - data: PresenceData
}

class UserPresenceEvent {
  - user_presence: UserPresence
}

class PresenceData {
  - time: int
}

class DetectingViaNetwork
class DetectingVisual

DetectingUserPresence <|-- DetectingViaNetwork
DetectingUserPresence  <|-- DetectingVisual

UserPresenceDispatcher <|-down- UserPresenceDispatcherViaQueue

DetectingUserPresence "*" *.left "1" UserData


Runnable <|-- UserPresenceValidator


UserPresenceValidator "*" *.left. "1" DetectingUserPresence
UserPresence *. PresenceData
UserPresenceDispatcher o.. UserPresence
DetectingUserPresence o.. UserPresence
UserPresenceDispatcherViaQueue o.. UserPresenceEvent
UserPresenceEvent o.. UserPresence


@enduml